<svg id="adcdba22-3fc0-4039-8014-851b777a0cc6" data-name="Capa 1" xmlns="http://www.w3.org/2000/svg" viewBox="0 0 201.64 201.64"><defs><style>.e357ce20-c573-494c-9411-b52e334e10de{fill:#15abce;}.a914fb76-e16f-4003-a630-24df431abe88{fill:#fff;stroke:#fff;stroke-miterlimit:10;stroke-width:4px;}</style></defs><circle class="e357ce20-c573-494c-9411-b52e334e10de" cx="100.82" cy="100.82" r="100.82"/><path class="a914fb76-e16f-4003-a630-24df431abe88" d="M62.19,139.39c.12-4.11.52-8.19,3.14-11.58a33.56,33.56,0,0,1,4.59-4.87,49.88,49.88,0,0,0,11.46-14.75,39,39,0,0,1,5.77-8.47c4.54-4.89,10.18-6.49,16.63-5.68s10.72,4.67,14,10c2.75,4.44,5.41,9,8.49,13.16a37.6,37.6,0,0,0,6.67,6.67c8.39,6.84,8.05,20.23,3.57,26.42-4.61,6.38-10.64,10.52-18.71,10.63-2.82,0-5.69-1-8.5-1.77-3.17-.82-6.33-1.93-9.64-1.43a55.91,55.91,0,0,0-9.43,2.1,19.05,19.05,0,0,1-15-.87c-5.1-2.5-9.15-6.09-11.49-11.38A18.31,18.31,0,0,1,62.19,139.39Zm2.74.06a42.59,42.59,0,0,0,.59,4.25c1.24,5.18,4.59,8.78,9,11.48s8.9,3.66,13.87,2.08c1.4-.45,2.85-.76,4.27-1.15,4.32-1.19,8.65-1.93,13.11-.79,2.28.58,4.55,1.22,6.85,1.7a25.81,25.81,0,0,0,6.11.91c10.85-.39,19.15-10.55,17.76-21.37a15.34,15.34,0,0,0-4.7-9.67c-1.2-1.12-2.29-2.35-3.52-3.42a43.24,43.24,0,0,1-9.28-11.8c-1.63-2.92-3.42-5.76-5.33-8.5-5.91-8.51-17.52-7.73-22.77-3a38.26,38.26,0,0,0-6.52,8.52c-2,3.29-3.8,6.78-6.16,9.82a63.55,63.55,0,0,1-7.47,7.57A17,17,0,0,0,64.93,139.45Z"/><path class="a914fb76-e16f-4003-a630-24df431abe88" d="M97.63,65.21C97.28,70,97,74.72,95.7,79.33c-1,3.75-2.59,7.24-5.64,9.82-6.13,5.19-14.54,4.41-19.8-1.91C64,79.74,60,66.67,67.41,54.1A29.21,29.21,0,0,1,78.07,43a17.48,17.48,0,0,1,6.78-2.21,8.37,8.37,0,0,1,8.32,3.87,23.89,23.89,0,0,1,3.72,11C97.29,58.83,97.39,62,97.63,65.21Zm-3-1.81c-.18-2-.38-5.23-.8-8.39A19.8,19.8,0,0,0,91,46.57c-1.48-2.22-3.52-3.47-6.21-2.79A23.09,23.09,0,0,0,78.87,46c-4.24,2.45-7,6.28-9.38,10.49C63.62,67,66.78,78.36,72.33,85.21c2,2.53,4.6,4.33,8,4.41,5.43.12,9.41-2.64,11.55-8S94.36,70.35,94.61,63.4Z"/><path class="a914fb76-e16f-4003-a630-24df431abe88" d="M138.37,68.4c-.39,7.3-2.52,13.85-7.34,19.39-7,8.1-18.53,4.88-22.61-2.59a30.57,30.57,0,0,1-3.36-10.67c-1-7.32-1.28-14.66.37-21.92a28.18,28.18,0,0,1,2.49-6.82c2.27-4.34,5.84-5.81,10.64-4.74a21.89,21.89,0,0,1,12,7.68A30.8,30.8,0,0,1,138.37,68.4ZM107,64.61c.32,3.37.55,6.76,1,10.11a22.78,22.78,0,0,0,3.59,10.17c3.13,4.54,11.77,7.49,17.2,1a26.32,26.32,0,0,0,6.57-17.8c-.16-8.49-4.12-15.26-10.41-20.74a15.21,15.21,0,0,0-8.17-3.69,5.57,5.57,0,0,0-5.72,2.45A17.24,17.24,0,0,0,109,50.4C107.44,55,107.22,59.79,107,64.61Z"/><path class="a914fb76-e16f-4003-a630-24df431abe88" d="M67.19,106.88c-.21,1.66-.3,3.34-.67,5-1.19,5.26-4.39,7.88-9.78,8.17-7.85.41-14.63-3.86-18.23-11.4a27.42,27.42,0,0,1-2.16-15.21,51.92,51.92,0,0,1,3.13-13.74,17.19,17.19,0,0,1,3.74-6.07,5.79,5.79,0,0,1,7.33-1.18c3.21,1.63,5.42,4.31,7.37,7.22a54.59,54.59,0,0,1,9,24.59,23.06,23.06,0,0,1,0,2.63ZM39,96.54a21.52,21.52,0,0,0,4.17,14.17c3.67,5,8.56,7.27,14.8,6.28a6.31,6.31,0,0,0,5.26-4.16,16.2,16.2,0,0,0,.93-7.19,51,51,0,0,0-8.94-24.72,17.57,17.57,0,0,0-5.63-5.62c-2-1.14-3.61-.89-4.95.93a19.78,19.78,0,0,0-2.33,4.16A52.12,52.12,0,0,0,39,96.54Z"/><path class="a914fb76-e16f-4003-a630-24df431abe88" d="M165.52,97.81c-.12,6.33-2,12.64-7.26,17.51a17.18,17.18,0,0,1-15.41,4.41c-4.53-.83-7.31-4.12-8-9.26-.74-5.55.27-10.9,1.93-16.15,2.11-6.64,5-12.87,9.74-18.1a20.18,20.18,0,0,1,4.09-3.46c3-1.9,5.78-1.46,8.2,1.12a21.27,21.27,0,0,1,4.46,8.66A55.75,55.75,0,0,1,165.52,97.81Zm-2.76.52a56.25,56.25,0,0,0-2.63-16,16.35,16.35,0,0,0-3.32-6.3c-1.46-1.58-3.06-1.88-4.8-.63a20.29,20.29,0,0,0-3.9,3.49c-5.63,6.83-8.69,14.81-10.19,23.44a21.33,21.33,0,0,0,.28,9.73,6.33,6.33,0,0,0,4.83,4.84,13.87,13.87,0,0,0,11.82-2.44A20.37,20.37,0,0,0,162.76,98.33Z"/></svg>