<svg id="acdf70bb-56b2-4184-8676-329a3b8a5058" data-name="Capa 1" xmlns="http://www.w3.org/2000/svg" viewBox="0 0 201.64 201.64"><defs><style>.b743b3c6-eb52-41ce-9c79-9311013c6cb6{fill:#da58dd;}.fa90c2da-76ae-47fd-85a7-37f7a1d2520c{fill:#fff;}</style></defs><circle class="b743b3c6-eb52-41ce-9c79-9311013c6cb6" cx="100.82" cy="100.82" r="100.82"/><path class="fa90c2da-76ae-47fd-85a7-37f7a1d2520c" d="M136.45,101.62C137,106,137,106,133,106H80.37c-.06-.64-.13-1.11-.14-1.58,0-2.72.08-2.84,2.74-2.84H135.1C135.51,101.54,135.92,101.58,136.45,101.62Z"/><path class="fa90c2da-76ae-47fd-85a7-37f7a1d2520c" d="M80.5,118.44a2.31,2.31,0,0,1-.2-.45c-.37-4.19-.37-4.19,3.76-4.19,11.37,0,22.73,0,34.1,0,.74,0,2,.31,2.1.69a10.18,10.18,0,0,1,0,3.48c0,.19-.81.42-1.24.42Q99.75,118.45,80.5,118.44Z"/><path class="fa90c2da-76ae-47fd-85a7-37f7a1d2520c" d="M80.37,130.92c-.43-4.64-.43-4.64,3.72-4.64,9.83,0,19.65,0,29.48,0,1.8,0,2.44.45,2.39,2.32,0,1.7-.36,2.42-2.3,2.4-10.52-.09-21,0-31.56,0Z"/><path class="fa90c2da-76ae-47fd-85a7-37f7a1d2520c" d="M80.29,81V76.8c.7,0,1.35-.14,2-.14h22.4c2.28,0,3.28,1.51,2.35,3.62a1.64,1.64,0,0,1-1.27.7C97.35,81,88.93,81,80.29,81Z"/><path class="fa90c2da-76ae-47fd-85a7-37f7a1d2520c" d="M106.81,89.1c.19.31.25.36.25.43.49,3.93.47,4-3.4,4H80.37c-.06-.64-.14-1.1-.14-1.57,0-2.71.06-2.81,2.74-2.82Z"/><path class="fa90c2da-76ae-47fd-85a7-37f7a1d2520c" d="M80.32,68.45c0-.56-.09-.9-.1-1.24,0-3,0-3,2.93-3,7.25,0,14.51,0,21.76,0,1.67,0,2.3.47,2.31,2.22s-.62,2.2-2.3,2.18c-7.59-.08-15.2,0-22.8,0C81.58,68.53,81,68.48,80.32,68.45Z"/><path class="b743b3c6-eb52-41ce-9c79-9311013c6cb6" d="M122.62,58.16c7.7,7,21.6,23.34,22.23,26.1a12.08,12.08,0,0,1-1.55.18c-5.54,0-11.09,0-16.63,0-3.12,0-4-1-4-4.12q0-10,0-19.95Z"/><path class="fa90c2da-76ae-47fd-85a7-37f7a1d2520c" d="M152.35,97.4V89.3h0V86.88A16.32,16.32,0,0,0,148,75.71Q138,64.58,128,53.48a17.44,17.44,0,0,0-13.62-5.95c-13.38,0-26.76,0-40.13,0-6,0-9.31,3.28-9.31,9.2v92.54c0,5.77,3.37,9.16,9.16,9.16q22,0,44.08,0l.49,0H143.2c5.78,0,9.15-3.39,9.15-9.17q0-25.62,0-51.23ZM122.62,58.16c7.7,7,21.6,23.34,22.23,26.1a12.08,12.08,0,0,1-1.55.18c-5.54,0-11.09,0-16.63,0-3.12,0-4-1-4-4.12q0-10,0-19.95Zm20,93.32H103v0H74.61c-2.73,0-2.76,0-2.76-2.83V57.18c0-2.65,0-2.69,2.68-2.69h41.15c0,9,0,17.54,0,26.13,0,6.61,4,10.62,10.59,10.65,5.54,0,11.09,0,16.63,0,.76,0,1.52.07,2.49.12v57.26C145.4,151.44,145.37,151.48,142.64,151.48Z"/></svg>