<svg id="af04ca4f-ffb6-4e4d-b8b1-8bc88d7b8228" data-name="Capa 1" xmlns="http://www.w3.org/2000/svg" viewBox="0 0 201.64 201.64"><defs><style>.af099ec4-312c-442c-a341-db773b4cce22{fill:#092468;}.a802169a-bc65-4821-90dc-71c850c3ff5a{fill:#fff;}</style></defs><circle class="af099ec4-312c-442c-a341-db773b4cce22" cx="100.82" cy="100.82" r="100.82"/><path class="a802169a-bc65-4821-90dc-71c850c3ff5a" d="M89.17,148.75c-1.7.18-3.11.44-4.53.45-10.69,0-21.38.06-32.08,0-8.72,0-12.85-4.28-12.85-13V54.77c0-8.37,3.49-11.88,11.8-11.88h67.3c8,0,12.22,4.22,12.24,12.21,0,15.83-.07,31.65.07,47.47,0,3.47-.63,6.3-3.24,8.72-2.29,2.12-4.31,4.54-7,7.46-.1-1.81-.2-2.87-.2-3.94q0-25.77,0-51.55c0-7.4-2.39-9.82-9.76-9.83q-24.52,0-49.06,0c-2,0-4,.14-6,.34-2.32.22-5,2.92-5.26,5.16-.18,2-.33,4-.33,5.94q0,32.22,0,64.45c0,6.47,2.77,9.13,9.24,9.14,6.18,0,12.37-.08,18.55.08a5.38,5.38,0,0,1,3.2,1.65C83.84,142.78,86.24,145.54,89.17,148.75Z"/><path class="a802169a-bc65-4821-90dc-71c850c3ff5a" d="M117,137l19-22.19c3.21-3.74,6.37-7.52,9.63-11.21,3.81-4.31,9.11-4.8,13.05-1.31s4.37,8.7.62,13.11q-17,20-34.12,39.86c-3.52,4.08-8.47,4.64-12.62,1.22q-11-9.09-21.7-18.62A8.77,8.77,0,0,1,90,125.47a8.9,8.9,0,0,1,12.46-.7C107.29,128.66,111.93,132.74,117,137Z"/><path class="a802169a-bc65-4821-90dc-71c850c3ff5a" d="M85.57,82.68c6.91,0,13.83,0,20.75,0a13.86,13.86,0,0,1,3.41.34c2.76.71,3.84,2.8,3.88,5.42s-1.76,3.91-4,4.58a11.52,11.52,0,0,1-3.12.23q-20,0-39.92,0A19.56,19.56,0,0,1,62.81,93c-3.18-.59-5-2.8-4.88-5.58s2.21-4.65,5.63-4.69C70.9,82.62,78.23,82.68,85.57,82.68Z"/><path class="a802169a-bc65-4821-90dc-71c850c3ff5a" d="M85.62,99.56c7.34,0,14.67,0,22,0,2.59,0,4.51.91,5.57,3.26,1.59,3.55-.51,6.68-4.68,6.85-3.56.14-7.13,0-10.69,0q-15.7,0-31.43,0a16.81,16.81,0,0,1-4.66-.45c-2.56-.77-4.12-2.59-3.74-5.42s2.27-4.2,5-4.22C70.54,99.52,78.08,99.57,85.62,99.56Z"/><path class="a802169a-bc65-4821-90dc-71c850c3ff5a" d="M85.68,66c7.23,0,14.46,0,21.7,0,3.82,0,6.23,2.16,6.29,5.47.06,3-2.38,4.91-6.33,4.91q-20.28,0-40.56,0a22.88,22.88,0,0,1-4.38-.28,5.27,5.27,0,0,1-4.46-5.59c.24-2.75,2.2-4.47,5.42-4.49C70.8,65.91,78.24,66,85.68,66Z"/><path class="a802169a-bc65-4821-90dc-71c850c3ff5a" d="M86.64,115.73c-2,2.87-3.66,5.59-5.65,8.08a5.43,5.43,0,0,1-3.39,2,124.48,124.48,0,0,1-12.52,0,11.94,11.94,0,0,1-4.75-1.26c-2.1-1-3.14-3.23-2.14-5.25.74-1.51,2.68-3.38,4.15-3.44C70.46,115.56,78.59,115.73,86.64,115.73Z"/><path class="a802169a-bc65-4821-90dc-71c850c3ff5a" d="M105.86,115.93c5.69-.48,7.91,1.38,7.32,6.23Z"/></svg>