<svg id="af160a71-c8e1-4ae6-8d52-fbfdf061baca" data-name="Capa 1" xmlns="http://www.w3.org/2000/svg" viewBox="0 0 201.64 201.64"><defs><style>.a0d0a02b-9f48-4158-99ba-0c63aa9eb071{fill:#5e5b58;}.ea37421b-3729-4bcc-84e7-fabbf4915677{fill:#fff;}</style></defs><circle class="a0d0a02b-9f48-4158-99ba-0c63aa9eb071" cx="100.82" cy="100.82" r="100.82"/><circle class="ea37421b-3729-4bcc-84e7-fabbf4915677" cx="38.4" cy="90.93" r="14.24"/><path class="ea37421b-3729-4bcc-84e7-fabbf4915677" d="M38.4,105.17A30.58,30.58,0,0,0,7.82,135.75H69A30.58,30.58,0,0,0,38.4,105.17Z"/><circle class="ea37421b-3729-4bcc-84e7-fabbf4915677" cx="100.89" cy="90.93" r="14.24"/><path class="ea37421b-3729-4bcc-84e7-fabbf4915677" d="M100.89,105.17a30.58,30.58,0,0,0-30.58,30.58h61.15A30.58,30.58,0,0,0,100.89,105.17Z"/><circle class="ea37421b-3729-4bcc-84e7-fabbf4915677" cx="163.24" cy="90.93" r="14.24"/><path class="ea37421b-3729-4bcc-84e7-fabbf4915677" d="M163.24,105.17a30.58,30.58,0,0,0-30.58,30.58h61.15A30.58,30.58,0,0,0,163.24,105.17Z"/></svg>