<svg id="ea224073-7a48-469f-91cb-92fb9e5c95c0" data-name="Capa 1" xmlns="http://www.w3.org/2000/svg" viewBox="0 0 201.64 201.64"><defs><style>.a9b0fb2d-a857-4ea7-8fb3-1d48c7dc200d{fill:#4af4d3;}.aea73ede-441e-4ab1-ad7d-8c952167f596{fill:#fff;}</style></defs><circle class="a9b0fb2d-a857-4ea7-8fb3-1d48c7dc200d" cx="100.82" cy="100.82" r="100.82"/><path class="aea73ede-441e-4ab1-ad7d-8c952167f596" d="M80.33,39.58c2.17.34,4.34.6,6.49,1A47.59,47.59,0,0,1,109,51.27a48.13,48.13,0,0,1,14.89,22.14,47.5,47.5,0,0,1,1.83,22.3,49.84,49.84,0,0,1-9.25,22.53c-.21.28-.37.62-.63,1.05.73.09,1.3.13,1.87.24a9.5,9.5,0,0,1,5,2.73q16.6,16.62,33.23,33.24c2.23,2.23,3.51,4.8,2.46,8-1.58,4.82-8.17,6.78-12.32,3.68a18.22,18.22,0,0,1-1.81-1.59Q128.68,150,113.1,134.44c-2.37-2.37-5.37-4.37-4.4-8.78-.68.46-1,.64-1.27.87A45.33,45.33,0,0,1,75.89,137c-15.14-.6-27.48-7.09-36.88-19a48.2,48.2,0,0,1-9.95-24.61c-.09-.74-.21-1.49-.32-2.24V85.58c.09-.45.2-.89.27-1.35.31-2,.49-4.11.94-6.12A49,49,0,0,1,68.26,40.6c2.15-.42,4.32-.68,6.48-1ZM77.55,51.74a36.64,36.64,0,1,0,36.63,36.65A36.53,36.53,0,0,0,77.55,51.74Z"/><path class="a9b0fb2d-a857-4ea7-8fb3-1d48c7dc200d" d="M77.55,51.74A36.64,36.64,0,1,1,40.9,88.37,36.53,36.53,0,0,1,77.55,51.74Z"/></svg>