<svg id="a5eea908-4756-4f19-800b-b573465db81f" data-name="Capa 1" xmlns="http://www.w3.org/2000/svg" viewBox="0 0 201.64 201.64"><defs><style>.bb825561-30c7-4747-a1aa-049b5cd647bb{fill:#585960;}.e949f9ac-2107-49f0-bcdd-af5f2c048b56{fill:#f8f8f8;}</style></defs><circle class="bb825561-30c7-4747-a1aa-049b5cd647bb" cx="100.82" cy="100.82" r="100.82"/><path class="e949f9ac-2107-49f0-bcdd-af5f2c048b56" d="M169,169.11H32.61V139.6H169ZM41.73,148.54V160h118.2V148.54Z"/><path class="e949f9ac-2107-49f0-bcdd-af5f2c048b56" d="M32.56,80.28V63.83c4.9-2.32,9.79-4.62,14.66-7,5.2-2.49,10.37-5,15.56-7.52,4.15-2,8.31-4,12.45-6,7-3.39,14.09-6.69,21-10.28,2.62-1.36,4.51,0,6.54.88,6.24,2.68,12.42,5.51,18.6,8.32,5.49,2.49,10.95,5,16.43,7.53,4.87,2.21,9.75,4.38,14.64,6.55,5.55,2.47,11.11,4.91,16.64,7.35V80.28Zm127.3-9c.58-1.22,0-1.79-1-2.23-4.24-1.83-8.48-3.67-12.68-5.57-7.43-3.36-14.82-6.79-22.25-10.15-7.66-3.47-15.34-6.94-23-10.31-1-.46-2.06-1.19-3.55-.39-4.43,2.37-9,4.47-13.53,6.64Q73.13,54.41,62.43,59.51q-9.78,4.68-19.56,9.33c-1.12.53-1.61,1.21-1.13,2.45Z"/><path class="e949f9ac-2107-49f0-bcdd-af5f2c048b56" d="M80.53,132.78V87.57h8.94v1.58c0,13.93,0,27.85,0,41.77,0,1.55-.48,2-1.94,1.89C85.31,132.7,83,132.78,80.53,132.78Z"/><path class="e949f9ac-2107-49f0-bcdd-af5f2c048b56" d="M121.14,132.78c-2.78,0-5.36,0-7.94-.05-.36,0-.71-.67-1-1.06-.08-.1,0-.32,0-.48V88.45c0-.26,0-.52,0-.9h8.94Z"/><path class="e949f9ac-2107-49f0-bcdd-af5f2c048b56" d="M48.64,87.44c2.77,0,5.25,0,7.72,0,1,0,1.28.47,1.28,1.41q0,21.12,0,42.24c0,1.23-.55,1.73-1.77,1.7-1.83,0-3.67-.09-5.5,0-1.32.08-1.8-.32-1.76-1.7.1-3.07,0-6.14,0-9.22V87.44Z"/><path class="e949f9ac-2107-49f0-bcdd-af5f2c048b56" d="M152.91,87.45c0,.67.08,1.2.08,1.72,0,13.86,0,27.73,0,41.59,0,1.61-.36,2.23-2.06,2.06a42.46,42.46,0,0,0-5.17,0c-1.19,0-1.79-.42-1.79-1.68q0-21.12,0-42.24c0-.79.11-1.42,1.08-1.42C147.65,87.44,150.23,87.45,152.91,87.45Z"/><path class="bb825561-30c7-4747-a1aa-049b5cd647bb" d="M41.73,148.54h118.2V160H41.73Z"/><path class="bb825561-30c7-4747-a1aa-049b5cd647bb" d="M159.86,71.29H41.74c-.48-1.24,0-1.92,1.13-2.45q9.8-4.64,19.56-9.33,10.7-5.11,21.38-10.23c4.53-2.17,9.1-4.27,13.53-6.64,1.49-.8,2.5-.07,3.55.39,7.71,3.37,15.39,6.84,23,10.31,7.43,3.36,14.82,6.79,22.25,10.15,4.2,1.9,8.44,3.74,12.68,5.57C159.88,69.5,160.44,70.07,159.86,71.29Z"/></svg>