<svg id="b7fdc781-03bc-4e53-94e1-f2f5c6a90eb9" data-name="Capa 1" xmlns="http://www.w3.org/2000/svg" viewBox="0 0 201.64 201.64"><defs><style>.f23805dc-449c-4a86-a850-76ed3a317c73{fill:#ef3706;}.e97881a1-8553-4c60-89eb-aeb8b4c2f138{fill:#fff;}</style></defs><circle class="f23805dc-449c-4a86-a850-76ed3a317c73" cx="100.82" cy="100.82" r="100.82"/><path class="e97881a1-8553-4c60-89eb-aeb8b4c2f138" d="M126.44,93.16c-1.29,3.46-2.71,6.88-3.82,10.39a11.7,11.7,0,0,0-.73,5.5c.86,4.41,2.24,8.71,3.37,13.06,1.48,5.71-1.23,8.56-6.84,7.18-13.49-3.3-27.22-4.08-41-3.78-3.88.09-7.31,5.54-5.87,9.14,2.26,5.7,4.49,11.42,6.8,17.1,1.5,3.7,1.38,7.19-1.51,10.09-2.22,2.24-4.91,3.31-8.22,2.24-4.09-1.33-5.9-4.23-6.57-8.29-1.12-6.78-2.41-13.53-3.62-20.3-.11-.62,0-1.6-.32-1.8-3.48-2.05-7-5.61-10.58-5.61-7.78,0-11.49-3.69-12.62-10.49-.63-3.82-1.65-7.57-2.52-11.34-1.51-6.54.49-10.7,6.55-13.35,17.85-7.8,35.15-16.57,50.68-28.48,3.18-2.44,6.16-5.15,9.13-7.84,4.16-3.77,7.92-2.77,9.51,2.64.53,1.8,1.08,3.61,1.46,5.44,1.1,5.3,2.6,9.79,8.15,12.81S125.59,86.43,126.44,93.16Z"/><path class="e97881a1-8553-4c60-89eb-aeb8b4c2f138" d="M145.48,38.37Q138.76,47.61,132,56.85c-1.48,2-2.9,4.11-4.53,6-1.37,1.62-3.45,2.38-4.8.45-.82-1.18-1.11-4-.32-4.85,6.26-7,12.8-13.83,19.37-20.58.62-.64,2-.52,3.07-.74Z"/><path class="e97881a1-8553-4c60-89eb-aeb8b4c2f138" d="M137.21,81.94c-.63-.62-2.61-1.81-2.47-2.66.24-1.53,1.47-3.65,2.79-4.12,6.12-2.19,12.4-3.89,18.64-5.76,2.75-.83,5.49-1.75,8.29-2.39.72-.16,1.65.58,2.48.91-.31.61-.46,1.55-.95,1.78-8.88,4-17.81,8-26.73,12A12,12,0,0,1,137.21,81.94Z"/><path class="e97881a1-8553-4c60-89eb-aeb8b4c2f138" d="M164.53,107.4c-8.72-.54-16.83-1.06-24.95-1.52-2.67-.16-4-1.5-3.62-4.12.38-2.87,2.54-3.19,4.81-2.78,6.87,1.26,13.72,2.64,20.58,4a47.47,47.47,0,0,1,5.85,1.24c1,.32,1.72,1.33,2.56,2a15.42,15.42,0,0,1-2.83,1.12A9.92,9.92,0,0,1,164.53,107.4Z"/></svg>