<svg id="a181a39b-f5ef-469d-a3b3-8375818f82c5" data-name="Capa 1" xmlns="http://www.w3.org/2000/svg" viewBox="0 0 201.64 201.64"><defs><style>.b6eb736a-fbe4-43f1-a5b8-d18a2ea27073{fill:#eade06;}.f0f0e4f8-a1a4-4cf6-945e-09b564123090{fill:#fff;}</style></defs><circle class="b6eb736a-fbe4-43f1-a5b8-d18a2ea27073" cx="100.82" cy="100.82" r="100.82"/><path class="f0f0e4f8-a1a4-4cf6-945e-09b564123090" d="M110.72,80.76c9.9-9.91,19.74-19.74,29.69-29.69C139.24,50,138,48.8,136.8,47.59a4.9,4.9,0,0,1,1.27-8.18q9.57-4.83,19.17-9.58a4.87,4.87,0,0,1,6.17,1c1.51,1.49,3,3,4.51,4.52a4.83,4.83,0,0,1,1,6q-4.81,9.7-9.7,19.39a4.87,4.87,0,0,1-8,1.25c-1.24-1.22-2.43-2.51-3.58-3.7L117.91,88c.17.19.39.48.64.74q9.15,9.18,18.33,18.33a2.38,2.38,0,0,0,1.63.63c13.91-1,27.17,9,30.25,22.75a28.84,28.84,0,0,1-.84,16c-1.44,4.21-5.58,5.19-8.72,2-4.79-4.78-9.59-9.55-14.34-14.37-.67-.67-1.2-.82-1.94-.27a.7.7,0,0,1-.23.11c-3.34.9-4.91,3.46-6.14,6.41-.33.8.08,1.08.49,1.49,4.88,4.88,9.76,9.74,14.62,14.63a4.9,4.9,0,0,1-.21,7.42,6.12,6.12,0,0,1-1.67.9A29.26,29.26,0,0,1,111,141.69c-.3-2.09-.19-4.24-.34-6.36a2.39,2.39,0,0,0-.53-1.43c-1.82-1.91-3.68-3.79-5.6-5.59a2.08,2.08,0,0,0-1.65-.42,9.48,9.48,0,0,0-6.74,11.31,6.31,6.31,0,0,1-2,6.75c-4.27,4.09-8.32,8.42-12.6,12.5-16,15.21-42.43,8-48.29-13.27-2.95-10.72-.4-20.32,7.27-28.4,4.19-4.42,8.59-8.62,12.88-12.94a5.22,5.22,0,0,1,5.37-1.44,9.63,9.63,0,0,0,11.94-6.46,1.74,1.74,0,0,0-.45-2c-1.85-1.76-3.61-3.62-5.46-5.38A2.09,2.09,0,0,0,63.42,88,29.24,29.24,0,0,1,33.89,49a4.9,4.9,0,0,1,8.39-1.89q7.29,7.24,14.53,14.55c.65.66,1.19.85,1.93.28a.88.88,0,0,1,.24-.11c3.33-.9,4.91-3.45,6.13-6.41.32-.78-.06-1.08-.48-1.49L50.28,39.53c-3.19-3.19-2.21-7.33,2.08-8.78A29.32,29.32,0,0,1,90.91,56.17c.1,1.35,0,2.71.08,4.07a2,2,0,0,0,.41,1.23q9.52,9.61,19.11,19.18A1,1,0,0,0,110.72,80.76ZM42.44,61.12l-.27.1c.1.58.18,1.16.32,1.74a19.43,19.43,0,0,0,22,15,6,6,0,0,1,5.63,1.87c5,5.11,10.09,10.14,15.14,15.2q16.86,16.91,33.74,33.8a5.8,5.8,0,0,1,1.79,5.06,27.92,27.92,0,0,0,0,6.46,19.36,19.36,0,0,0,16.92,16.15c-.36-.39-.62-.7-.91-1l-9.75-9.76a4.89,4.89,0,0,1-1-6.27c1.51-3,2.95-6.13,4.61-9.09a7.34,7.34,0,0,1,2.71-2.71c2.92-1.65,6-3.06,9-4.55,2.55-1.27,4.46-1,6.48,1.06q4.84,4.81,9.66,9.66c.29.28.6.55,1,.91-1-10.52-11.47-18.72-21.73-17a6.52,6.52,0,0,1-6.2-2Q107.2,91.2,82.74,66.8a5.91,5.91,0,0,1-1.81-5.53A18.34,18.34,0,0,0,77.32,47a19.4,19.4,0,0,0-13.42-7.8c.47.52.73.83,1,1.12,3.21,3.22,6.44,6.43,9.65,9.66a4.93,4.93,0,0,1,1,6.37c-1.49,3-3,6-4.49,9a6,6,0,0,1-2.83,2.82C65.5,69.51,62.74,70.91,60,72.3,56.57,74,55.05,73.74,52.36,71ZM78.62,102.6c-.09.16-.23.37-.37.58-4.41,6.77-10.63,9.89-18.71,9.36a2,2,0,0,0-1.4.57c-3.51,3.46-7,6.93-10.48,10.45A18.5,18.5,0,0,0,42.07,138c.44,8,4.29,14,11.79,17s14.84,1.88,21-3.74c3.73-3.41,7.2-7.11,10.75-10.72a2.25,2.25,0,0,0,.55-1.53,19.36,19.36,0,0,1,7-16.87c.93-.8,2-1.44,3-2.14Z"/><path class="b6eb736a-fbe4-43f1-a5b8-d18a2ea27073" d="M42.44,61.12,52.36,71c2.69,2.7,4.21,2.95,7.6,1.26,2.78-1.39,5.54-2.79,8.33-4.15a6,6,0,0,0,2.83-2.82c1.47-3,3-6,4.49-9a4.93,4.93,0,0,0-1-6.37c-3.21-3.23-6.44-6.44-9.65-9.66-.29-.29-.55-.6-1-1.12A19.4,19.4,0,0,1,77.32,47a18.34,18.34,0,0,1,3.61,14.32,5.91,5.91,0,0,0,1.81,5.53q24.45,24.42,48.79,48.92a6.52,6.52,0,0,0,6.2,2c10.26-1.69,20.77,6.51,21.73,17-.39-.36-.7-.63-1-.91q-4.83-4.83-9.66-9.66c-2-2-3.93-2.33-6.48-1.06-3,1.49-6.06,2.9-9,4.55a7.34,7.34,0,0,0-2.71,2.71c-1.66,3-3.1,6-4.61,9.09a4.89,4.89,0,0,0,1,6.27l9.75,9.76c.29.28.55.59.91,1a19.36,19.36,0,0,1-16.92-16.15,27.92,27.92,0,0,1,0-6.46A5.8,5.8,0,0,0,119,128.8Q102.14,111.92,85.29,95c-5.05-5.06-10.14-10.09-15.14-15.2a6,6,0,0,0-5.63-1.87,19.43,19.43,0,0,1-22-15c-.14-.58-.22-1.16-.32-1.74Z"/><path class="f0f0e4f8-a1a4-4cf6-945e-09b564123090" d="M78.62,102.6,96.11,120c-1,.7-2,1.34-3,2.14a19.36,19.36,0,0,0-7,16.87,2.25,2.25,0,0,1-.55,1.53c-3.55,3.61-7,7.31-10.75,10.72-6.15,5.62-13.37,6.8-21,3.74s-11.35-9-11.79-17a18.5,18.5,0,0,1,5.59-14.43c3.46-3.52,7-7,10.48-10.45a2,2,0,0,1,1.4-.57c8.08.53,14.3-2.59,18.71-9.36C78.39,103,78.53,102.76,78.62,102.6Zm2.92,19.92-.33-.18a4.9,4.9,0,0,0-8.41-3.4Q63,128.66,53.31,138.43a4.91,4.91,0,1,0,6.94,6.95c6.52-6.48,13-13,19.46-19.52A13.76,13.76,0,0,0,81.54,122.52Z"/><path class="b6eb736a-fbe4-43f1-a5b8-d18a2ea27073" d="M81.54,122.52a13.76,13.76,0,0,1-1.83,3.34c-6.43,6.56-12.94,13-19.46,19.52a4.91,4.91,0,1,1-6.94-6.95q9.7-9.78,19.49-19.49a4.9,4.9,0,0,1,8.41,3.4Z"/></svg>