<svg id="b47cf718-b3cf-44ee-a627-77228b9e8b96" data-name="Capa 1" xmlns="http://www.w3.org/2000/svg" viewBox="0 0 201.64 201.64"><defs><style>.ad02cddc-321a-4e19-bc64-03acc7e91131{fill:#6217cc;}.f3d470d0-87f5-4694-81f6-c7895c108c3a{fill:#fff;}</style></defs><circle class="ad02cddc-321a-4e19-bc64-03acc7e91131" cx="100.82" cy="100.82" r="100.82"/><path class="f3d470d0-87f5-4694-81f6-c7895c108c3a" d="M143,155.86V62.36h-9.25v-14c3.75,0,7.49-.38,11.13.08,7.25.91,12.21,6.93,12.22,14.32q0,23.86,0,47.72,0,22.69,0,45.38A13.76,13.76,0,0,1,143,170q-42,0-84.07,0c-8.33,0-14.32-6-14.32-14.29V63.24c0-8.87,6.12-15,15-15h8.39v14H58.73v93.61Z"/><path class="f3d470d0-87f5-4694-81f6-c7895c108c3a" d="M100.78,71.66q-11.86,0-23.72,0c-2.82,0-4.35-1.51-4.36-4.32,0-6,0-12,0-18a1.37,1.37,0,0,1,1.14-1.53c3-1,5.89-2,8.79-3.18a3.76,3.76,0,0,0,1.62-1.31c.94-1.3,1.73-2.71,2.6-4.06a16.23,16.23,0,0,1,27.71.19c2,3.35,4.31,5.82,8.26,6.62A52.5,52.5,0,0,1,128,47.9a1.18,1.18,0,0,1,.95,1.36c0,6.1,0,12.19,0,18.29a3.94,3.94,0,0,1-4.3,4.11Q112.72,71.68,100.78,71.66Zm-.15-31.4a7.87,7.87,0,1,0,7.9,7.72A7.8,7.8,0,0,0,100.63,40.26Z"/><path class="f3d470d0-87f5-4694-81f6-c7895c108c3a" d="M72.75,109V81.1h28V109Zm4.74-23.26v18.55H96V85.78Z"/><path class="f3d470d0-87f5-4694-81f6-c7895c108c3a" d="M77.44,123.19v18.65H96c.59-1.35-.49-3.13,1.1-4.38a37.44,37.44,0,0,0,3.63-3.74v12.8H72.78V118.59H95.45c-1.65,1.61-3,3-4.51,4.33a2.24,2.24,0,0,1-1.37.26C85.58,123.2,81.58,123.19,77.44,123.19Z"/><path class="f3d470d0-87f5-4694-81f6-c7895c108c3a" d="M79.13,130.17c1.53-1.58,3.09-3.17,4.89-5l4.6,5.33,15-15.13,4.79,4.87L88.84,139.77Z"/><path class="f3d470d0-87f5-4694-81f6-c7895c108c3a" d="M110.26,99.68V95.15h18.58v4.53Z"/><path class="f3d470d0-87f5-4694-81f6-c7895c108c3a" d="M128.82,137.23H110.3v-4.58h18.52Z"/><path class="f3d470d0-87f5-4694-81f6-c7895c108c3a" d="M100.63,40.26A7.87,7.87,0,0,1,100.76,56a7.87,7.87,0,1,1-.13-15.73Z"/><path class="f3d470d0-87f5-4694-81f6-c7895c108c3a" d="M77.49,85.78H96v18.55H77.49Z"/></svg>