<svg id="b218d952-1183-4382-8b22-5d57398e0e09" data-name="Capa 1" xmlns="http://www.w3.org/2000/svg" viewBox="0 0 201.64 201.64"><defs><style>.ac5ce448-9cec-4265-8788-76dc8cd288ac{fill:#408440;}.f0508d15-c04d-4af2-a28e-00fc4df0b0d5{fill:#f7f7f7;}</style></defs><circle class="ac5ce448-9cec-4265-8788-76dc8cd288ac" cx="100.82" cy="100.82" r="100.82"/><path class="f0508d15-c04d-4af2-a28e-00fc4df0b0d5" d="M173.1,69.08c-.33,1.61-.6,3.23-1,4.82a30.59,30.59,0,0,1-29.66,22.85c-12.43,0-24.86,0-37.29,0h-1.84v9.37l6.37.82c5.68.71,11.37,1.3,17,2.14,7,1,11.43,6.38,11.45,13.44q0,16.74,0,33.49c0,4.86,0,9.71,0,14.57,0,3.15-1.68,4.95-4.81,5q-25.77,0-51.55,0c-3.14,0-4.8-1.8-4.81-4.94,0-4.57,0-9.13,0-13.69A2.85,2.85,0,0,0,76,155c-5.87-5-11.81-9.94-17.71-14.91-4.72-4-6.18-9.53-3.9-14.74a13.7,13.7,0,0,1,14-7.8,14.23,14.23,0,0,1,7.41,3.09c.29.23.59.44,1,.76V96.76H55.1A30.66,30.66,0,0,1,24.36,71.07c-3-16.21,8.84-32.75,25.16-35.18a38.07,38.07,0,0,1,5.65-.42q43.32,0,86.65,0c16.14,0,28.64,10.82,31,26.84.05.32.17.64.25,1ZM103.19,88h1.25c12.67,0,25.34,0,38,0a21.9,21.9,0,0,0,.18-43.79q-44.11-.12-88.24,0A21.9,21.9,0,0,0,54.66,88c7,0,14,0,21,0,.41,0,.83,0,1.35-.09,0-4.46,0-8.82,0-13.18a13,13,0,0,1,25.32-4.19,17.32,17.32,0,0,1,.84,5.12C103.27,79.74,103.19,83.81,103.19,88Zm26,61.33a2.63,2.63,0,0,0,.15-.46c0-9,0-17.95,0-26.93a4.23,4.23,0,0,0-3.88-4.22c-8.56-1.09-17.12-2.19-25.69-3.2-4.06-.47-5.35-1.77-5.35-5.86q0-16.67,0-33.34a4.37,4.37,0,1,0-8.73,0c0,1.07,0,2.14,0,3.21q0,25.83,0,51.68a4.73,4.73,0,0,1-1.83,4.21,4.38,4.38,0,0,1-5.61-.39c-2.73-2.26-5.39-4.6-8.17-6.79a5.19,5.19,0,0,0-7.19.8c-1.45,1.9-1,3.66,1.56,5.79,5.79,4.87,11.58,9.75,17.42,14.56a4.14,4.14,0,0,0,2.45.9q21.69.08,43.38,0Zm.13,8.85H85.79v8.52h43.57Z"/><path class="ac5ce448-9cec-4265-8788-76dc8cd288ac" d="M103.19,88c0-4.21.08-8.28,0-12.34a17.32,17.32,0,0,0-.84-5.12A13,13,0,0,0,77,74.75c-.06,4.36,0,8.72,0,13.18-.52,0-.94.09-1.35.09-7,0-14,0-21,0a21.9,21.9,0,0,1-.27-43.8q44.11-.12,88.24,0A21.9,21.9,0,0,1,142.45,88c-12.67,0-25.34,0-38,0Zm21.62-19.49a3.45,3.45,0,0,1-.4-.27c-1.65-1.64-3.29-3.29-5-4.93-2.07-2-4.77-2.19-6.58-.36s-1.65,4.45.45,6.57q3.9,3.92,7.82,7.82c2.37,2.36,4.76,2.38,7.11,0l12.25-12.25c1.61-1.61,3.26-3.2,4.82-4.85a4.25,4.25,0,0,0,.61-5.24,4.1,4.1,0,0,0-4.61-2,6.48,6.48,0,0,0-2.67,1.62C134,59.25,129.46,63.87,124.81,68.53Z"/><path class="ac5ce448-9cec-4265-8788-76dc8cd288ac" d="M129.23,149.35h-1.5q-21.69,0-43.38,0a4.14,4.14,0,0,1-2.45-.9c-5.84-4.81-11.63-9.69-17.42-14.56-2.54-2.13-3-3.89-1.56-5.79a5.19,5.19,0,0,1,7.19-.8c2.78,2.19,5.44,4.53,8.17,6.79a4.38,4.38,0,0,0,5.61.39,4.73,4.73,0,0,0,1.83-4.21q0-25.84,0-51.68c0-1.07,0-2.14,0-3.21a4.37,4.37,0,1,1,8.73,0q0,16.68,0,33.34c0,4.09,1.29,5.39,5.35,5.86,8.57,1,17.13,2.11,25.69,3.2a4.23,4.23,0,0,1,3.88,4.22c0,9,0,18,0,26.93A2.63,2.63,0,0,1,129.23,149.35Z"/><path class="ac5ce448-9cec-4265-8788-76dc8cd288ac" d="M129.36,158.2v8.52H85.79V158.2Z"/><path class="f0508d15-c04d-4af2-a28e-00fc4df0b0d5" d="M124.81,68.53c4.65-4.66,9.22-9.28,13.85-13.83a6.48,6.48,0,0,1,2.67-1.62,4.1,4.1,0,0,1,4.61,2,4.25,4.25,0,0,1-.61,5.24c-1.56,1.65-3.21,3.24-4.82,4.85L128.26,77.4c-2.35,2.34-4.74,2.32-7.11,0q-3.91-3.9-7.82-7.82c-2.1-2.12-2.27-4.72-.45-6.57s4.51-1.69,6.58.36c1.66,1.64,3.3,3.29,5,4.93A3.45,3.45,0,0,0,124.81,68.53Z"/></svg>